<svg width="15" height="15" viewBox="0 0 15 15" fill="none" xmlns="http://www.w3.org/2000/svg">
<path d="M7.73178 14.5C7.43951 14.5 7.20257 14.2631 7.20257 13.9708V11.659C7.20257 9.67766 5.59634 8.07143 3.61496 8.07143H1.59877C1.28318 8.07143 1.02734 7.81559 1.02734 7.5C1.02734 7.18441 1.28318 6.92857 1.59877 6.92857H3.61496C5.59634 6.92857 7.20257 5.32234 7.20257 3.34096V1.0292C7.20257 0.736933 7.43951 0.5 7.73178 0.5C8.02405 0.5 8.26098 0.736933 8.26098 1.02921V3.34096C8.26098 5.32234 9.86721 6.92857 11.8486 6.92857H13.8648C14.1804 6.92857 14.4362 7.18441 14.4362 7.5C14.4362 7.81559 14.1804 8.07143 13.8648 8.07143H11.8486C9.86721 8.07143 8.26098 9.67766 8.26098 11.659V13.9708C8.26098 14.2631 8.02405 14.5 7.73178 14.5Z" fill="#1D1D1D" stroke="white"/>
</svg>
